{"title":"Marvels.Jessica.Jones.S01.2160p.NF.WEBRip.DD5.1.x264-TrollUHD[ra","uid":15742249,"size":183721801116,"categoryP":"video","categoryS":"hd___tv_shows","magnet":"?xt=urn:btih:c6f4f4f4ef7b85b87c9fb65e405311833a88e7d0&amp;dn=Marvels.Jessica.Jones.S01.2160p.NF.WEBRip.DD5.1.x264-TrollUHD%5Bra&amp;tr=udp%3A%2F%2Ftracker.leechers-paradise.org%3A6969&amp;tr=udp%3A%2F%2Fzer0day.ch%3A1337&amp;tr=udp%3A%2F%2Fopen.demonii.com%3A1337&amp;tr=udp%3A%2F%2Ftracker.coppersurfer.tk%3A6969&amp;tr=udp%3A%2F%2Fexodus.desync.com%3A6969","seeders":1,"leechers":2,"uploader":"BreexeOX","files":39,"time":1472929463,"description":"https://rarbg.to\r\n\r\n\r\nGeneral\r\nFormat                      : Matroska\r\nFormat version              : Version 4 / Version 2\r\nFile size                   : 15.0 GiB\r\nDuration                    : 51 min\r\nOverall bit rate            : 41.4 Mb/s\r\nEncoded date                : UTC 2015-11-22 17:48:06\r\nWriting application         : mkvmerge v8.3.0 ('Over the Horizon') 64bit\r\nWriting library             : libebml v1.3.1 + libmatroska v1.4.2\r\n\r\nVideo\r\nID                          : 1\r\nFormat                      : AVC\r\nFormat/Info                 : Advanced Video Codec\r\nFormat profile              :   \r\nFormat settings, CABAC      : Yes\r\nFormat settings, ReFrames   : 5 frames\r\nCodec ID                    : V_MPEG4/ISO/AVC\r\nDuration                    : 51 min\r\nBit rate                    : 40.8 Mb/s\r\nWidth                       : 3 840 pixels\r\nHeight                      : 2 160 pixels\r\nDisplay aspect ratio        : 16:9\r\nFrame rate mode             : Constant\r\nFrame rate                  : 23.976 (24000/1001) FPS\r\nColor space                 : YUV\r\nChroma subsampling          : 4:2:0\r\nBit depth                   : 8 bits\r\nScan type                   : Progressive\r\nBits/(Pixel*Frame)          : 0.205\r\nStream size                 : 14.8 GiB (98%)\r\nWriting library             : x264 core 146 r2538 121396c\r\nDefault                     : Yes\r\nForced                      : No\r\n\r\nAudio\r\nID                          : 2\r\nFormat                      : AC-3\r\nFormat/Info                 : Audio Coding 3\r\nMode extension              : CM (complete main)\r\nFormat settings, Endianness : Big\r\nCodec ID                    : A_AC3\r\nDuration                    : 51 min\r\nBit rate mode               : Constant\r\nBit rate                    : 640 kb/s\r\nChannel(s)                  : 6 channels\r\nChannel positions           : Front: L C R, Side: L R, LFE\r\nSampling rate               : 48.0 kHz\r\nFrame rate                  : 31.250 FPS (1536 spf)\r\nCompression mode            : Lossy\r\nStream size                 : 237 MiB (2%)\r\nLanguage                    : English\r\nDefault                     : Yes\r\nForced                      : No","torrent":{"xt":"urn:btih:c6f4f4f4ef7b85b87c9fb65e405311833a88e7d0","amp;dn":"Marvels.Jessica.Jones.S01.2160p.NF.WEBRip.DD5.1.x264-TrollUHD%5Bra","amp;tr":["udp%3A%2F%2Ftracker.leechers-paradise.org%3A6969","udp%3A%2F%2Fzer0day.ch%3A1337","udp%3A%2F%2Fopen.demonii.com%3A1337","udp%3A%2F%2Ftracker.coppersurfer.tk%3A6969","udp%3A%2F%2Fexodus.desync.com%3A6969"],"infoHash":"c6f4f4f4ef7b85b87c9fb65e405311833a88e7d0","infoHashBuffer":{"type":"Buffer","data":[198,244,244,244,239,123,133,184,124,159,182,94,64,83,17,131,58,136,231,208]},"announce":[],"urlList":[]}}